<?xml version="1.0" standalone="no"?>
<!DOCTYPE svg PUBLIC "-//W3C//DTD SVG 20010904//EN"
 "http://www.w3.org/TR/2001/REC-SVG-20010904/DTD/svg10.dtd">
<svg version="1.0" xmlns="http://www.w3.org/2000/svg"
 width="2330.000000pt" height="2330.000000pt" viewBox="0 0 2330.000000 2330.000000"
 preserveAspectRatio="xMidYMid meet">
<metadata>
Created by potrace 1.14, written by Peter Selinger 2001-2017
</metadata>
<g transform="translate(0.000000,2330.000000) scale(0.100000,-0.100000)"
fill="#000000" stroke="none">
<path d="M11845 23244 c-326 -50 -618 -215 -795 -448 -125 -166 -179 -336
-174 -552 1 -65 4 -129 7 -140 3 -12 8 -39 11 -60 13 -82 55 -216 106 -344
l22 -55 -29 25 c-88 78 -278 275 -322 333 -72 96 -119 196 -139 292 -12 56 -5
200 12 265 22 85 114 268 146 291 14 10 78 32 142 49 115 29 132 33 193 45
142 28 171 37 183 52 29 40 -16 105 -66 97 -140 -24 -370 -80 -487 -119 -380
-126 -646 -368 -720 -655 -9 -36 -18 -66 -19 -67 -1 -2 -17 2 -35 7 -81 23
-253 31 -361 17 l-55 -8 36 34 c19 18 48 51 65 73 16 21 32 42 37 45 7 5 71
-5 177 -27 82 -17 91 -16 110 1 12 11 20 31 20 51 0 26 -6 36 -27 47 -26 13
-98 29 -188 42 -22 4 -51 8 -65 10 -124 21 -478 21 -588 0 -9 -1 -39 -6 -67
-9 -345 -46 -794 -209 -1132 -412 -96 -58 -324 -209 -349 -232 -11 -9 -44 -35
-74 -58 -294 -219 -721 -634 -1023 -997 -404 -483 -671 -939 -843 -1441 -39
-114 -110 -349 -119 -397 -2 -9 -15 -63 -29 -120 -13 -57 -32 -138 -40 -179
-8 -41 -17 -86 -20 -100 -3 -14 -7 -34 -9 -45 -7 -31 -16 -86 -22 -130 -4 -22
-8 -47 -10 -55 -2 -8 -7 -34 -10 -57 -11 -78 -14 -98 -18 -118 -3 -11 -8 -49
-12 -85 -3 -36 -8 -72 -10 -80 -2 -8 -7 -40 -10 -70 -4 -30 -8 -66 -10 -80 -2
-14 -6 -56 -10 -95 -3 -38 -8 -86 -10 -105 -4 -34 -8 -84 -20 -235 -31 -414
-36 -914 -10 -1140 2 -16 6 -66 9 -110 15 -197 27 -330 41 -445 46 -377 104
-710 189 -1090 14 -63 32 -155 41 -205 8 -49 17 -97 20 -105 2 -8 7 -35 10
-60 9 -65 61 -318 91 -440 14 -58 27 -113 29 -123 32 -149 137 -501 192 -642
19 -49 52 -155 74 -235 26 -99 44 -150 58 -161 17 -14 20 -33 26 -161 3 -80 8
-174 10 -209 2 -35 7 -113 10 -174 3 -60 8 -141 11 -180 2 -38 7 -122 9 -185
28 -628 64 -757 336 -1222 99 -168 191 -342 224 -423 9 -22 36 -112 61 -200
25 -88 63 -197 85 -242 70 -142 196 -242 324 -258 l53 -7 27 -77 c193 -557
543 -1219 1003 -1896 282 -415 903 -1247 1289 -1729 60 -74 103 -137 103 -150
0 -12 15 -51 34 -86 57 -108 67 -178 62 -422 -2 -117 -5 -239 -5 -271 l-1 -58
-273 -134 c-212 -103 -325 -152 -502 -214 -127 -45 -259 -92 -295 -105 -36
-13 -110 -39 -165 -59 -55 -19 -165 -59 -245 -87 -80 -29 -170 -61 -200 -72
-294 -106 -1248 -455 -1301 -477 -20 -8 -366 -139 -574 -216 -177 -66 -362
-137 -380 -145 -11 -5 -99 -39 -195 -75 -255 -98 -402 -154 -425 -164 -11 -5
-165 -66 -343 -136 -211 -83 -326 -133 -332 -145 -15 -29 -12 -58 10 -80 20
-20 44 -20 95 4 152 70 1965 763 2650 1012 143 52 271 100 285 105 21 9 235
87 430 157 30 11 169 61 309 111 139 50 255 91 257 91 3 0 -4 -17 -14 -38 -55
-108 -75 -238 -76 -482 0 -239 25 -470 77 -695 155 -668 546 -1312 1082 -1780
484 -423 1125 -750 1785 -910 45 -11 309 -65 340 -70 20 -3 45 -7 55 -9 11 -2
45 -7 75 -11 30 -3 66 -8 80 -10 155 -22 400 -38 610 -38 151 -1 430 9 480 17
14 3 57 7 95 11 39 3 87 8 108 11 90 10 104 12 147 18 43 7 352 61 395 70 106
22 411 101 510 131 634 195 1198 446 1790 797 83 48 159 95 169 103 23 18 24
68 1 91 -25 25 -57 20 -116 -18 -107 -68 -427 -247 -599 -335 -518 -264 -1032
-460 -1550 -592 -139 -36 -347 -81 -440 -96 -57 -10 -83 -14 -115 -19 -16 -3
-52 -8 -80 -11 -27 -4 -57 -8 -65 -10 -8 -3 -45 -7 -82 -10 -37 -3 -76 -8 -87
-10 -11 -2 -67 -7 -123 -10 -57 -4 -119 -8 -138 -10 -103 -11 -564 -4 -701 10
-35 4 -82 8 -103 10 -160 14 -430 61 -611 107 -44 11 -87 22 -95 23 -8 2 -15
4 -15 5 0 1 -8 3 -18 5 -41 8 -241 71 -349 111 -222 82 -446 185 -648 299 -84
47 -341 214 -390 253 -14 11 -72 58 -130 104 -113 90 -350 320 -447 433 -267
313 -485 695 -615 1075 -22 63 -41 122 -43 130 -1 8 -9 35 -16 60 -15 53 -11
36 -42 185 -14 66 -28 145 -32 175 -3 30 -8 67 -11 81 -23 144 -19 508 7 639
25 121 85 194 209 252 36 17 108 51 160 76 340 162 338 161 276 91 -81 -93
-140 -239 -170 -424 -13 -85 -16 -430 -3 -452 2 -4 8 -36 11 -71 7 -67 16
-114 41 -227 9 -38 18 -81 21 -95 13 -63 108 -330 153 -430 276 -616 782
-1140 1391 -1440 274 -135 597 -242 860 -285 19 -3 46 -8 60 -10 28 -6 66 -10
175 -20 39 -4 81 -9 95 -11 31 -5 377 -5 445 0 108 9 202 17 235 21 78 9 126
16 150 20 14 2 45 7 70 10 38 5 101 16 225 39 23 4 97 19 105 21 5 1 50 10 95
19 11 2 81 18 155 36 74 17 143 33 153 35 24 5 298 82 382 106 170 51 506 168
688 241 436 174 821 366 1247 620 273 164 698 464 1094 772 90 70 162 121 191
136 59 30 558 364 660 442 6 5 53 40 105 79 157 118 286 224 460 377 89 79
378 369 390 392 7 13 1 20 -28 33 -91 39 -178 74 -320 128 -244 94 -753 355
-952 489 -171 115 -347 279 -493 460 -138 171 -243 380 -276 550 -19 93 -20
99 -36 240 -5 40 -14 196 -21 350 -10 253 -5 715 11 980 8 127 16 239 20 270
3 19 7 62 10 95 2 33 8 83 11 110 4 28 6 61 5 74 0 13 3 29 8 35 19 23 138
271 221 461 90 205 269 781 304 978 2 15 7 35 10 45 3 9 7 28 10 42 2 14 14
70 25 125 12 55 24 114 27 130 2 17 11 66 19 110 8 44 17 98 21 120 3 22 7 51
9 65 16 103 25 164 30 220 4 36 9 74 11 85 2 11 7 58 10 105 8 110 9 116 24
112 202 -46 401 40 523 226 91 139 113 233 142 602 13 177 49 342 110 515 58
165 104 268 253 565 164 327 193 418 187 590 -4 102 -9 137 -42 299 -87 431
-207 805 -323 1001 -16 27 -25 52 -20 55 5 3 11 31 15 63 3 31 8 73 11 92 5
38 5 329 -1 395 -5 66 -17 179 -20 196 -2 9 -6 40 -10 70 -3 30 -8 61 -10 69
-2 8 -7 39 -10 69 -4 30 -8 61 -10 70 -9 50 -42 280 -50 351 -9 76 -16 138
-20 160 -2 14 -7 59 -10 100 -4 41 -9 86 -10 100 -2 14 -6 59 -10 100 -3 41
-8 97 -11 123 -3 27 -7 72 -9 100 -5 67 -14 188 -20 252 -2 28 -7 86 -10 130
-6 79 -11 139 -20 243 -3 28 -7 77 -10 107 -10 112 -16 171 -21 215 -2 25 -7
63 -9 85 -14 129 -22 201 -30 255 -2 14 -11 75 -20 135 -18 123 -74 435 -80
445 -2 4 -7 22 -10 41 -3 19 -23 102 -45 184 -175 670 -480 1295 -912 1870
-58 77 -118 155 -134 174 -289 345 -567 620 -870 863 -389 310 -790 556 -1229
755 -104 46 -389 162 -415 168 -8 2 -27 8 -41 13 -35 14 -64 5 -76 -21 -21
-50 -2 -83 60 -103 116 -38 383 -151 562 -238 497 -241 947 -547 1354 -921
144 -132 407 -405 473 -491 12 -16 25 -31 29 -34 11 -9 165 -204 224 -285 82
-111 255 -373 255 -385 0 -5 3 -10 8 -10 4 0 12 -10 18 -23 6 -12 42 -76 79
-142 267 -472 451 -963 559 -1495 25 -124 46 -237 51 -275 2 -11 11 -69 20
-130 9 -60 18 -126 21 -145 7 -60 14 -114 19 -150 5 -36 6 -48 24 -225 25
-247 25 -250 36 -410 3 -49 8 -101 10 -115 2 -14 7 -68 10 -120 4 -52 9 -113
11 -135 2 -22 6 -71 9 -110 3 -38 7 -90 10 -115 2 -25 7 -76 10 -115 3 -38 8
-86 10 -105 2 -19 9 -82 15 -140 6 -58 13 -116 15 -130 2 -14 7 -50 10 -80 4
-30 9 -62 10 -70 2 -8 6 -37 9 -65 4 -27 9 -57 11 -65 2 -8 7 -35 10 -60 3
-25 7 -56 9 -70 3 -14 9 -56 15 -95 25 -167 24 -155 36 -290 4 -44 9 -91 11
-105 5 -33 4 -318 -1 -350 -2 -14 -4 -37 -4 -52 l-1 -27 -52 24 c-51 24 -105
27 -218 13 l-25 -3 -1 210 c-1 116 -4 219 -7 230 -3 11 -6 28 -6 37 -1 16 -39
58 -227 253 -104 108 -240 266 -296 345 -120 169 -209 396 -211 539 0 39 31
71 68 71 27 0 55 -24 56 -48 0 -9 2 -24 4 -32 1 -8 6 -34 9 -57 26 -164 133
-365 296 -553 82 -95 217 -234 207 -215 -181 375 -245 556 -252 720 -2 47 -2
85 0 85 1 0 14 -18 29 -41 43 -64 142 -156 210 -194 75 -42 147 -68 157 -58
11 12 -17 169 -46 262 -33 103 -70 190 -180 416 -48 99 -103 218 -122 265 -62
147 -141 395 -159 500 -3 14 -9 41 -14 60 -5 19 -12 51 -15 70 -6 37 -15 92
-21 124 -17 94 -23 218 -14 288 6 46 5 50 -53 125 -32 43 -61 85 -64 93 -4 8
-18 33 -33 55 -46 68 -142 270 -250 525 -125 295 -218 480 -305 611 -36 53
-65 107 -65 118 0 28 34 61 63 61 64 0 201 -241 392 -689 152 -358 222 -499
318 -638 27 -40 53 -73 56 -73 10 0 46 84 67 156 27 91 24 253 -8 379 -66 261
-286 701 -509 1018 -272 387 -600 729 -966 1007 -40 30 -71 55 -70 57 2 1 84
-18 183 -42 98 -25 185 -45 192 -45 20 0 14 17 -34 98 -100 165 -253 314 -469
454 -49 32 -95 62 -102 68 -7 5 -14 10 -16 10 -3 0 -65 35 -138 78 -74 43
-165 94 -204 114 -38 20 -99 51 -135 70 -117 61 -362 175 -500 233 -74 31
-144 60 -155 65 -11 5 -67 27 -125 49 -70 27 -143 66 -220 117 -132 88 -286
165 -380 190 -71 19 -336 26 -460 12 -110 -13 -221 -35 -232 -46 -17 -17 -12
-62 9 -83 21 -21 41 -25 88 -16 234 47 506 43 629 -8 36 -15 317 -182 421
-250 28 -18 104 -67 170 -110 299 -194 410 -274 610 -439 115 -95 425 -399
425 -416 0 -13 -101 14 -160 44 -57 28 -165 107 -235 170 -146 133 -287 213
-387 222 l-63 6 30 -29 c17 -15 50 -46 75 -67 235 -205 553 -514 556 -540 0
-6 2 -19 2 -28 1 -9 8 -23 15 -30 7 -7 30 -35 52 -63 22 -27 43 -52 46 -55 15
-14 169 -235 228 -328 178 -283 307 -549 407 -842 38 -112 95 -314 108 -380 2
-14 12 -61 20 -105 24 -126 31 -173 42 -285 3 -30 7 -68 9 -85 6 -39 6 -419 0
-470 -2 -22 -7 -69 -10 -105 -3 -36 -8 -72 -10 -80 -2 -8 -7 -37 -10 -63 -13
-112 -96 -450 -116 -471 -9 -10 -13 -11 -89 -21 -135 -17 -235 -45 -325 -90
-70 -35 -141 -92 -290 -234 -103 -98 -228 -206 -263 -228 -15 -9 -29 -18 -31
-20 -6 -5 28 -30 72 -53 83 -45 146 -53 447 -55 157 -2 294 -5 305 -8 11 -3
40 -8 65 -11 195 -27 432 -107 582 -197 145 -87 222 -151 325 -271 17 -20 33
-32 35 -27 2 6 11 -19 19 -56 l15 -67 -35 39 c-121 129 -231 254 -231 262 0
15 -52 29 -130 36 -359 31 -497 41 -680 50 -116 6 -331 14 -405 14 -30 1 -36
4 -27 13 17 17 15 73 -3 88 -15 12 -93 11 -298 -6 -53 -4 -68 -3 -66 8 4 29
-3 38 -39 57 -128 65 -279 69 -498 13 -147 -38 -153 -38 -359 -41 -115 -2
-230 -4 -255 -6 -60 -4 -177 -15 -220 -21 -19 -3 -50 -7 -69 -10 -60 -8 -191
-44 -260 -71 -36 -14 -85 -27 -108 -27 -37 -2 -43 1 -44 19 0 11 -2 38 -4 60
-2 22 -7 65 -10 95 -6 63 -13 114 -30 222 -5 31 -2 63 8 100 41 145 51 222 52
408 0 201 -4 251 -34 410 -44 232 -96 396 -276 875 -62 165 -131 356 -154 425
-38 117 -91 304 -91 323 0 15 64 -4 96 -28 111 -84 264 -283 371 -486 69 -130
159 -383 189 -534 16 -79 36 -207 40 -258 3 -34 7 -68 10 -76 2 -7 7 -106 10
-218 l7 -206 -22 22 c-11 11 -31 21 -44 21 -25 0 -73 -43 -64 -57 3 -4 17 -60
31 -123 38 -170 48 -326 33 -490 -9 -91 -9 -96 -44 -244 l-27 -119 23 -18 c28
-23 50 -24 78 -4 25 17 35 49 68 212 19 92 30 122 63 171 70 106 135 260 161
382 11 51 18 107 25 200 3 36 8 97 11 135 8 90 13 126 31 202 13 60 70 200 78
192 2 -2 7 -40 11 -84 4 -44 8 -87 9 -95 26 -144 23 -245 -15 -447 -44 -231
-148 -468 -310 -710 -51 -75 -60 -111 -33 -137 29 -29 66 -23 118 19 30 23 55
34 91 39 60 7 152 30 202 51 35 15 36 15 20 -3 -20 -22 -22 -61 -4 -86 20 -27
109 -23 242 10 226 57 415 180 626 411 51 56 197 254 252 343 80 130 171 335
184 415 9 57 15 40 9 -25 -20 -191 -77 -429 -147 -611 -21 -55 -41 -87 -72
-116 -70 -66 -165 -130 -242 -164 -83 -36 -101 -59 -84 -109 15 -40 42 -43
123 -9 105 44 228 132 321 229 33 35 95 100 139 144 245 253 335 412 361 641
4 33 9 73 11 90 17 150 21 450 9 650 -5 99 -8 126 -21 235 -4 30 -8 66 -9 80
-2 14 -6 43 -10 65 -3 22 -8 50 -10 63 -9 55 91 8 126 -59 l21 -42 -22 -17
c-23 -17 -23 -18 -11 -131 35 -329 33 -796 -4 -1034 -3 -16 -8 -62 -11 -100
-5 -62 -4 -72 15 -89 14 -13 31 -17 55 -14 l35 4 -6 -70 -5 -69 29 18 c108 68
168 175 218 390 102 433 91 959 -31 1450 -66 267 -153 503 -284 770 -123 250
-199 380 -359 612 -68 100 -305 408 -345 449 -6 6 -40 44 -76 85 -84 97 -445
458 -535 534 -38 33 -79 68 -90 78 -82 74 -391 298 -431 314 -22 8 -17 -45 10
-103 19 -41 153 -204 212 -259 34 -32 285 -325 479 -560 209 -253 282 -403
257 -530 -5 -27 2 -35 -135 150 -48 64 -223 282 -256 320 -135 151 -302 306
-440 409 -12 9 -13 4 -7 -29 22 -117 87 -264 158 -359 21 -27 36 -52 33 -54
-6 -7 -106 29 -169 60 -75 38 -146 84 -266 174 -112 83 -227 161 -291 196 -50
28 -181 78 -204 78 -31 0 179 -336 325 -520 185 -233 511 -541 588 -556 35 -7
59 7 72 40 6 17 10 13 28 -27 28 -64 41 -137 36 -216 -3 -63 -31 -156 -47
-160 -4 0 -28 38 -53 86 -171 324 -547 658 -997 884 -71 36 -74 39 -82 94 -12
73 -76 258 -125 360 -145 302 -389 566 -674 730 l-81 47 65 -6 c196 -16 394
-134 624 -373 38 -40 73 -70 78 -66 25 15 51 102 53 178 6 140 -31 236 -167
436 -142 208 -168 265 -145 316 12 27 59 43 107 38 19 -3 56 -7 82 -10 64 -7
245 -55 418 -110 225 -72 229 -73 340 -96 119 -24 263 -27 356 -9 59 12 94 25
84 32 -3 2 -277 113 -610 245 -801 320 -889 345 -1210 339 -178 -3 -262 -17
-406 -66 -380 -129 -664 -468 -694 -830 -6 -62 -16 51 -14 145 3 107 5 118 30
204 90 313 402 561 799 637 93 17 307 23 400 11 28 -4 70 -9 95 -13 25 -3 63
-10 85 -16 22 -5 48 -12 57 -13 140 -27 335 -104 578 -229 319 -163 437 -219
546 -262 123 -48 132 -50 157 -31 40 29 26 100 -22 112 -14 4 -39 12 -56 20
-16 7 -55 23 -85 35 -65 27 -109 48 -430 212 -270 138 -402 193 -590 244 -131
36 -144 39 -225 50 -27 3 -54 8 -59 11 -20 13 -346 10 -431 -3z m-2735 -818
c0 -3 -26 -10 -57 -16 -32 -7 -105 -28 -163 -47 -394 -129 -764 -362 -1163
-733 -142 -132 -384 -380 -502 -515 -34 -39 -206 -253 -225 -281 -8 -12 -41
-59 -73 -106 -59 -86 -59 -86 -96 -81 -45 6 -54 -4 -143 -152 -119 -198 -232
-446 -303 -666 -39 -119 -100 -362 -110 -432 -3 -23 -10 -64 -15 -92 -10 -56
-18 -121 -30 -240 -8 -82 -5 -564 3 -600 3 -11 8 -47 11 -80 20 -176 70 -403
128 -585 17 -52 32 -106 34 -120 2 -14 7 -50 11 -80 14 -100 8 -398 -11 -497
-45 -247 -168 -489 -238 -468 -32 10 -58 35 -58 56 0 10 18 46 40 80 64 99
118 257 135 394 4 28 8 61 11 75 5 33 5 278 0 310 -3 14 -7 52 -11 85 -7 60
-25 141 -65 290 -36 133 -64 260 -76 340 -2 17 -6 39 -8 51 -28 137 -29 691
-1 855 2 13 8 51 14 84 6 33 13 76 16 95 3 19 10 50 15 69 5 18 7 32 5 30 -2
-2 -63 -62 -135 -133 -137 -137 -154 -145 -153 -74 0 28 61 197 108 303 8 17
57 138 110 270 53 132 100 249 105 260 11 24 25 59 165 405 59 146 112 275
118 286 29 53 198 236 442 479 210 209 225 223 370 346 432 366 882 620 1320
746 170 48 475 106 475 89z m817 -409 c8 -55 49 -170 93 -262 44 -93 128 -237
149 -258 17 -17 -11 -36 -36 -24 -45 20 -79 -4 -89 -63 -7 -39 -30 -230 -39
-330 -4 -36 -8 -81 -10 -100 -19 -174 -24 -478 -10 -638 7 -90 -5 -182 -25
-182 -9 0 -39 116 -48 185 -13 100 -5 360 14 460 2 10 6 37 9 60 3 22 10 67
16 100 6 33 12 71 14 85 3 14 7 50 11 80 3 30 8 59 11 63 3 5 6 79 8 166 5
267 -34 439 -134 586 l-21 30 38 37 c40 39 44 39 49 5z m-318 -97 c0 -3 -26
-27 -57 -54 -205 -180 -361 -439 -427 -711 -68 -279 -42 -590 73 -864 17 -39
28 -71 25 -71 -14 0 -52 27 -80 56 -39 40 -82 137 -97 214 -8 47 -96 455 -112
520 -22 92 -55 146 -101 161 -80 26 -133 -42 -151 -196 -10 -84 -8 -292 3
-360 31 -199 82 -361 162 -518 93 -181 220 -347 267 -347 32 0 44 17 67 100
26 94 50 140 93 178 55 48 98 56 178 31 83 -25 115 -22 142 14 18 25 21 40 18
122 -1 51 3 106 8 121 10 25 36 53 51 54 3 0 28 -48 57 -107 28 -60 81 -171
117 -248 110 -231 116 -244 112 -272 -2 -15 -16 -36 -31 -47 -24 -18 -39 -21
-119 -17 -223 9 -249 7 -294 -18 -66 -38 -86 -100 -63 -196 16 -65 23 -134 16
-160 -9 -35 -59 -64 -99 -58 -66 10 -119 52 -212 168 -22 28 -43 52 -46 55
-16 14 -205 258 -270 350 -160 223 -243 367 -345 596 -7 17 -29 78 -48 135
-46 139 -65 235 -81 409 -5 47 -13 110 -22 169 -6 41 -39 150 -51 169 -9 13
-43 -19 -84 -78 -35 -51 -16 -1 26 70 58 96 125 173 207 240 65 52 196 138
212 139 5 1 -5 -16 -21 -36 -73 -92 -142 -258 -158 -376 -7 -59 -7 -200 1
-237 3 -14 8 -41 11 -60 7 -39 21 -71 38 -82 21 -14 63 -8 81 12 17 19 18 24
2 93 -15 71 -17 238 -3 300 58 251 250 453 533 559 96 35 224 70 288 77 75 8
185 9 184 1z m2386 -549 c28 -12 66 -30 85 -40 19 -10 78 -41 130 -69 162 -86
180 -95 176 -99 -1 -2 -19 4 -40 12 -34 15 -36 14 -27 -2 6 -10 31 -65 57
-123 85 -193 203 -416 307 -585 62 -100 208 -283 336 -421 31 -33 90 -98 131
-144 41 -46 82 -90 90 -99 9 -9 54 -58 100 -110 47 -52 100 -111 118 -130 190
-203 429 -580 496 -781 21 -64 51 -206 62 -295 4 -27 8 -53 10 -56 7 -13 18
-192 18 -304 1 -138 -13 -288 -35 -385 -6 -25 -13 -56 -15 -70 -3 -14 -16 -63
-30 -110 -62 -210 -160 -421 -277 -595 -58 -86 -156 -215 -164 -215 -2 0 10
25 27 56 113 207 221 526 256 761 3 21 7 49 10 63 21 123 23 454 4 578 -5 26
-11 70 -14 97 -13 96 -58 278 -97 393 -41 118 -162 374 -222 468 -50 78 -143
209 -169 237 -13 14 -42 47 -64 74 -191 223 -495 456 -771 591 -215 105 -484
194 -395 130 29 -20 111 -137 147 -208 35 -70 60 -137 74 -202 l9 -40 -47 4
c-69 7 -127 40 -243 139 -120 104 -206 152 -264 147 -37 -3 -39 -5 -46 -45
-10 -59 -31 -96 -80 -137 -53 -46 -84 -61 -152 -77 -116 -26 -236 3 -368 90
-71 46 -110 77 -235 188 -93 83 -207 170 -326 251 -59 40 -107 75 -107 77 0 2
24 2 53 0 68 -4 124 -30 222 -100 169 -123 260 -173 390 -215 83 -26 77 -23
148 -80 38 -30 57 -52 57 -67 0 -62 50 -100 96 -72 12 8 54 43 94 78 63 57 77
76 125 175 29 61 68 163 85 226 40 144 69 205 117 251 45 43 85 58 143 54 80
-6 133 -37 278 -163 71 -61 156 -112 168 -100 13 14 9 137 -8 218 -20 103 -35
144 -81 237 -96 189 -232 336 -469 506 -42 30 -74 58 -70 62 13 13 147 -3 197
-24z m-3919 -118 c-16 -33 -55 -147 -62 -183 -3 -14 -7 -32 -10 -40 -18 -51
-25 -307 -12 -430 34 -300 178 -623 451 -1007 61 -86 86 -113 107 -118 37 -8
68 9 76 41 6 24 8 22 48 -33 63 -87 156 -223 156 -230 0 -2 -9 -16 -19 -30
-23 -28 -21 -34 34 -125 22 -37 60 -100 84 -140 25 -40 48 -74 53 -76 4 -2 8
-8 8 -13 0 -22 447 -706 624 -954 92 -129 272 -370 328 -439 60 -75 236 -285
268 -320 218 -242 541 -559 603 -592 24 -13 31 -13 57 1 17 9 30 19 31 23 0 4
2 16 4 27 3 14 -14 36 -57 75 -218 199 -303 289 -324 342 -20 48 -20 53 -5 57
25 5 51 32 51 53 0 22 -17 56 -37 77 -65 65 -353 566 -353 615 0 19 -25 37
-62 45 -30 6 -38 19 -115 166 -127 245 -231 485 -279 644 l-13 43 27 -23 c82
-75 106 -109 197 -284 113 -216 194 -344 311 -487 56 -67 62 -80 58 -110 -4
-27 3 -45 38 -98 92 -139 232 -259 389 -335 83 -40 118 -44 143 -16 28 31 17
73 -26 96 -31 16 -44 35 -84 120 -26 55 -69 144 -96 198 l-48 97 112 -90 c134
-108 274 -203 383 -258 75 -39 99 -58 235 -187 109 -104 141 -127 169 -120 50
12 67 65 32 101 -10 10 -69 66 -132 124 -459 424 -778 752 -941 965 -92 122
-230 347 -259 423 -8 23 -1 18 47 -28 32 -30 63 -59 69 -65 7 -5 27 -24 46
-40 115 -103 354 -272 524 -370 95 -55 328 -175 339 -175 3 0 35 -13 71 -30
36 -16 76 -30 90 -30 27 0 55 33 55 65 0 12 -54 75 -143 165 -328 335 -579
654 -830 1062 -60 96 -187 325 -187 336 0 2 17 -18 38 -45 57 -71 196 -198
277 -253 157 -106 292 -164 520 -224 77 -21 192 -54 255 -73 l115 -37 165
-165 c200 -200 247 -254 406 -461 67 -87 209 -299 246 -369 17 -31 36 -63 43
-71 7 -8 51 -91 98 -185 129 -259 244 -560 311 -820 29 -114 72 -318 81 -385
3 -25 8 -52 10 -60 2 -8 6 -42 10 -75 3 -33 8 -76 10 -95 2 -19 7 -72 10 -118
l7 -82 -44 -19 c-38 -16 -46 -17 -70 -5 -66 34 -127 8 -195 -82 -44 -59 -142
-155 -200 -196 -72 -52 -73 -121 -2 -133 44 -8 178 105 301 255 31 38 42 45
70 44 18 0 41 -4 51 -9 9 -4 30 -5 47 -3 16 2 26 0 24 -4 -3 -5 -1 -22 6 -38
12 -29 36 -41 73 -35 12 2 45 6 72 9 28 4 68 10 90 16 22 5 41 7 43 5 3 -2 -9
-7 -24 -11 -31 -7 -373 -120 -872 -288 -398 -135 -724 -229 -937 -271 -274
-54 -532 -87 -780 -100 -208 -11 -268 -11 -324 -3 -31 5 -72 10 -91 12 -19 2
-41 4 -47 5 -7 0 -13 12 -13 24 0 38 -31 56 -172 103 -160 53 -182 54 -206 15
-13 -22 -22 -27 -32 -21 -16 10 -88 26 -160 35 -68 9 -135 33 -166 60 -16 14
-38 25 -50 25 -31 0 -63 -35 -59 -66 l3 -27 -72 7 c-66 6 -93 10 -156 21 -14
2 -52 7 -85 11 -33 3 -63 8 -66 10 -3 2 -33 6 -65 10 -32 3 -90 9 -129 14 -75
8 -378 5 -392 -3 -5 -3 -29 -8 -54 -11 -100 -12 -336 -88 -428 -137 -34 -18
-35 -18 -54 1 -15 17 -27 19 -68 15 -71 -8 -121 -28 -233 -93 -55 -31 -126
-66 -159 -77 -49 -16 -62 -25 -70 -48 -13 -41 13 -77 58 -77 48 0 129 32 221
88 44 26 98 56 121 66 l42 19 26 -32 c15 -17 34 -31 43 -31 9 0 54 20 101 44
105 53 200 89 306 115 127 30 190 40 310 45 87 4 89 4 60 -11 -19 -10 -62 -17
-115 -19 -66 -3 -88 -7 -97 -21 -15 -20 -17 -48 -4 -72 9 -15 0 -18 -83 -29
-89 -12 -111 -16 -173 -27 -16 -3 -57 -10 -93 -15 -329 -54 -832 -179 -1208
-301 -68 -22 -125 -39 -127 -37 -12 11 -52 239 -72 403 -16 127 -8 583 12 684
2 11 7 41 11 68 3 26 8 57 11 68 2 11 5 29 7 40 4 26 16 85 22 106 3 12 35
-13 117 -95 124 -123 227 -199 266 -194 13 2 32 14 43 28 18 25 18 26 -12 113
-33 99 -31 90 -66 257 -26 129 -24 421 4 574 12 59 22 109 24 111 2 1 21 14
42 28 l39 26 49 -39 c63 -50 120 -77 190 -91 73 -15 103 -7 116 30 8 24 7 37
-9 66 -226 420 -319 697 -321 952 0 57 1 105 3 108 3 3 130 -193 212 -329 7
-11 15 -25 20 -30 4 -6 37 -56 74 -111 142 -215 314 -444 457 -610 61 -72 313
-327 376 -381 145 -125 379 -290 508 -357 81 -43 115 -44 134 -2 16 37 3 68
-39 90 -77 40 -251 153 -347 224 -174 131 -368 315 -542 515 -67 76 -283 349
-280 353 1 1 82 -78 181 -175 200 -196 364 -337 560 -481 154 -114 159 -117
302 -175 227 -93 591 -199 778 -226 44 -6 90 -16 102 -22 33 -16 69 -2 83 31
15 37 3 62 -47 92 -21 13 -40 25 -43 29 -3 3 -23 18 -45 34 -53 39 -182 171
-238 243 -138 179 -262 410 -476 883 -122 268 -122 254 -1 197 128 -59 609
-363 897 -565 39 -28 78 -52 85 -53 31 -6 57 13 64 46 6 32 -1 42 -117 182
-179 215 -249 301 -299 363 -25 30 -47 57 -50 60 -3 3 -52 64 -110 135 -57 72
-156 194 -220 271 -63 78 -124 153 -135 166 -11 14 -89 109 -174 211 -158 190
-196 224 -244 212 -53 -14 -96 -139 -104 -305 l-6 -115 -24 75 c-144 454 -197
578 -343 800 -110 167 -270 392 -289 408 -36 29 -102 -5 -97 -50 2 -13 47 -86
101 -162 159 -227 260 -384 314 -493 28 -56 51 -108 51 -115 0 -8 4 -18 9 -24
9 -9 53 -135 101 -289 61 -195 110 -343 135 -410 15 -38 25 -68 22 -65 -13 13
-77 103 -123 170 -107 159 -171 276 -292 540 l-20 45 -28 -60 c-77 -163 -20
-394 220 -900 78 -164 199 -385 281 -510 75 -114 80 -126 64 -136 -52 -33
-122 22 -250 195 -49 67 -93 126 -97 131 -21 26 -155 252 -204 345 -115 215
-232 521 -297 770 -70 270 -102 514 -116 885 -2 72 -8 207 -11 300 -4 94 -6
178 -6 188 1 20 -4 18 -63 -32 -38 -33 -18 -4 39 57 70 74 132 94 194 60 29
-15 63 -72 97 -163 59 -158 167 -324 288 -446 54 -53 66 -71 65 -96 -1 -17 9
-46 22 -64 41 -59 224 -303 240 -321 8 -9 47 -55 85 -102 81 -98 111 -115 150
-85 39 31 32 60 -36 141 -33 40 -75 90 -92 111 -150 180 -292 407 -432 687
-190 382 -245 654 -181 900 35 135 74 216 168 343 53 71 67 84 44 40z m2490
-238 c21 -38 73 -131 116 -205 l78 -135 -84 87 c-96 101 -192 233 -176 243 21
13 31 55 19 78 -7 14 -7 18 -1 12 6 -5 27 -41 48 -80z m3623 -582 c215 -217
388 -525 461 -818 25 -104 28 -110 54 -113 35 -4 71 33 125 131 51 93 104 135
129 104 10 -13 76 -238 70 -240 -2 -1 -13 -7 -25 -14 -13 -8 -32 -9 -50 -4
-25 7 -42 7 -105 2 -15 -1 -16 -23 -15 -228 2 -207 -6 -422 -18 -482 -2 -13
-7 -47 -9 -75 -3 -28 -8 -61 -10 -72 -2 -12 -7 -38 -10 -59 -9 -52 -39 -118
-67 -143 -25 -24 -59 -29 -60 -9 0 6 -2 21 -4 32 -12 59 -23 222 -40 605 -3
63 -8 140 -10 170 -2 30 -7 87 -10 125 -3 39 -13 111 -21 160 -9 50 -17 99
-18 110 -22 152 -125 411 -219 550 -87 127 -161 190 -251 210 l-51 12 1 46 c3
104 50 104 153 0z m1771 -418 c39 -88 77 -173 85 -190 84 -188 274 -746 310
-909 2 -11 20 -84 39 -161 32 -131 67 -294 81 -375 3 -19 8 -42 10 -50 2 -8 7
-34 10 -56 l6 -42 -48 4 c-67 6 -173 39 -215 67 l-35 24 -18 -96 c-10 -53 -21
-99 -24 -103 -3 -4 -7 37 -8 90 -2 111 -11 251 -19 310 -3 22 -1 49 5 60 5 10
12 30 15 43 3 13 10 44 16 69 14 55 17 212 7 303 -12 112 -51 261 -141 534
-86 262 -116 369 -136 480 -12 69 -22 168 -16 162 2 -2 36 -76 76 -164z
m-8591 98 c-34 -54 -59 -130 -83 -248 -31 -158 -41 -266 -41 -465 0 -160 7
-277 21 -370 10 -66 45 -235 60 -284 17 -61 17 -66 0 -66 -49 0 -102 93 -132
235 -14 60 -41 223 -49 290 -4 28 -8 57 -10 65 -2 8 -7 35 -10 60 -18 132 -78
303 -136 382 l-26 37 -13 -77 c-7 -42 -14 -86 -15 -97 -8 -49 -26 -174 -31
-215 -22 -196 9 -562 63 -733 l15 -49 -33 -41 c-19 -23 -55 -84 -81 -135 l-46
-93 -15 53 c-51 179 -63 490 -32 801 3 26 7 70 10 97 9 87 16 154 20 180 2 14
7 50 10 80 4 30 9 60 12 65 2 6 -3 1 -12 -10 -35 -41 -210 -421 -290 -625 -41
-106 -111 -306 -121 -343 -12 -52 -15 -20 -4 44 43 237 277 797 458 1096 72
119 220 328 228 321 1 -2 -4 -28 -12 -58 -20 -75 -24 -182 -10 -244 l12 -51
20 30 c30 47 296 415 300 415 2 0 -10 -21 -27 -47z m1132 -380 c13 -16 12 -17
-3 -4 -17 13 -22 21 -14 21 2 0 10 -8 17 -17z m1672 -600 c57 -29 130 -89 207
-168 186 -193 240 -245 305 -297 84 -67 183 -131 287 -186 72 -38 94 -55 128
-96 15 -19 14 -19 -120 57 -235 132 -495 332 -695 533 -178 178 -193 199 -112
157z m-3018 -788 c18 -18 99 -82 206 -161 57 -42 133 -102 169 -132 36 -30 76
-63 90 -75 169 -139 487 -457 468 -468 -24 -13 -76 -2 -125 27 -26 15 -167
145 -313 289 -148 146 -306 291 -358 330 -72 54 -101 82 -129 130 -20 33 -44
71 -52 85 l-15 25 24 -20 c14 -11 30 -24 35 -30z m-1390 -111 c28 -30 26 -39
-34 -138 -82 -133 -167 -338 -211 -507 -19 -72 -76 -84 -115 -25 -16 24 -15
31 11 123 45 161 115 321 204 472 63 105 99 124 145 75z m8980 -308 c2 -56 -1
-126 -6 -156 -5 -30 -11 -68 -14 -85 -27 -164 -132 -393 -340 -741 -58 -97
-105 -179 -105 -182 -1 -16 -112 -87 -205 -132 -109 -53 -187 -77 -286 -86
l-64 -5 79 45 c102 59 171 112 258 197 39 38 98 91 131 117 114 89 267 253
331 355 23 37 14 80 -20 96 -36 16 -42 14 -76 -21 -17 -18 -28 -28 -26 -23 6
11 35 79 48 110 13 31 48 127 102 285 54 155 91 237 141 312 41 61 49 48 52
-86z m1690 16 c4 -9 9 -35 11 -57 10 -121 18 -174 39 -264 54 -220 159 -420
309 -585 41 -45 45 -67 16 -96 -38 -38 -72 -27 -135 43 -146 161 -262 389
-319 627 -14 61 -19 89 -31 185 -8 64 -8 142 0 155 20 32 96 27 110 -8z m-140
-797 c82 -102 150 -205 196 -296 27 -54 109 -286 109 -307 0 -4 -22 36 -48 88
-86 171 -184 323 -320 495 l-78 100 -67 -1 c-37 0 -67 2 -67 4 0 2 10 43 22
89 l23 86 79 -84 c43 -46 111 -125 151 -174z m-10524 58 c80 -170 70 -392 -27
-634 -19 -48 -83 -184 -142 -301 -59 -117 -115 -231 -125 -254 -25 -60 -58
-157 -54 -161 4 -3 58 54 385 404 52 57 98 101 101 98 21 -21 18 -178 -4 -246
-41 -125 -90 -201 -258 -404 -111 -133 -171 -222 -208 -306 l-24 -57 -18 107
c-28 164 -29 465 -2 696 5 44 14 106 31 210 26 161 98 426 168 619 53 144 127
307 137 300 5 -3 23 -35 40 -71z m8931 -851 c9 -9 6 -12 -17 -13 -77 -2 -125
-23 -125 -56 0 -7 -8 -13 -17 -14 -10 0 -29 -2 -43 -4 -14 -1 -69 -6 -122 -9
-53 -4 -105 -8 -115 -10 -10 -2 -49 -7 -88 -11 -67 -6 -110 -12 -165 -20 -14
-2 -56 -9 -95 -15 -38 -6 -83 -13 -100 -16 -69 -12 -228 -48 -350 -80 -188
-49 -187 -49 -100 -9 99 44 167 65 216 65 51 0 69 8 80 37 7 18 5 34 -5 54
l-14 29 51 1 c29 1 140 2 247 4 259 3 297 8 510 71 56 17 234 14 252 -4z
m-1323 -116 c-16 -16 -259 -101 -259 -91 0 7 69 36 160 66 84 27 108 33 99 25z
m951 -116 c0 -5 -25 -10 -55 -12 -56 -3 -78 8 -27 14 55 6 82 5 82 -2z m-120
-9 c0 -11 -80 -20 -86 -9 -2 4 13 9 33 11 21 2 41 4 46 5 4 1 7 -2 7 -7z
m-7795 -53 c-3 -24 -8 -68 -11 -98 -11 -96 -13 -132 -14 -264 -2 -148 -8 -169
-90 -277 -63 -84 -165 -180 -249 -234 -70 -45 -178 -98 -191 -93 -4 2 39 70
97 152 57 81 136 196 177 255 40 58 103 150 140 204 37 53 66 97 63 97 -2 0
-51 -64 -108 -142 -56 -79 -106 -145 -109 -148 -4 -3 -22 -27 -41 -55 -19 -27
-56 -79 -83 -115 -26 -36 -55 -76 -64 -88 -18 -25 -66 -90 -80 -107 -17 -22
-249 -339 -279 -382 -37 -53 -31 -66 -79 161 -6 30 258 412 277 400 18 -11
118 54 200 131 39 37 149 161 177 200 51 71 187 296 235 388 16 31 31 57 33
57 2 0 1 -19 -1 -42z m7668 35 c-7 -2 -21 -2 -30 0 -10 3 -4 5 12 5 17 0 24
-2 18 -5z m-873 -57 c0 -2 -7 -7 -16 -10 -8 -3 -12 -2 -9 4 6 10 25 14 25 6z
m2060 -40 c205 -36 297 -69 380 -135 125 -100 152 -179 175 -526 3 -49 8 -115
10 -145 25 -342 25 -833 0 -970 -2 -14 -7 -42 -9 -62 -47 -369 -189 -579 -487
-726 -191 -94 -296 -121 -1044 -273 -82 -17 -161 -33 -175 -35 -14 -3 -42 -9
-62 -15 -141 -37 -730 -55 -1018 -31 -394 34 -582 142 -737 427 -56 103 -193
389 -193 403 0 4 -14 41 -31 82 -44 108 -153 439 -182 550 -63 242 -68 407
-17 555 48 139 117 217 285 323 50 31 297 147 408 191 247 99 628 213 847 255
61 11 189 37 230 45 25 6 65 13 90 17 48 7 57 9 135 19 28 3 61 8 75 10 14 3
57 7 95 10 39 4 81 8 95 10 14 2 70 7 125 10 55 4 116 9 135 11 19 2 103 6
185 10 83 4 151 7 153 9 11 9 462 -6 532 -19z m931 -67 c41 -17 76 -33 78 -35
3 -3 -17 -27 -45 -55 -35 -36 -55 -49 -69 -46 -45 11 -140 57 -137 68 3 14 83
99 93 99 4 0 40 -14 80 -31z m347 -16 c31 -34 238 -275 287 -334 56 -69 306
-401 336 -449 77 -119 104 -202 114 -350 3 -47 9 -107 12 -135 8 -59 7 -80 -2
-118 -6 -22 -2 -34 16 -53 22 -24 22 -24 3 -39 -26 -20 -34 -19 -34 5 0 11
-23 45 -51 76 -90 100 -192 247 -299 434 -109 189 -202 336 -264 415 -28 36
-24 34 38 -20 111 -96 180 -169 259 -273 72 -95 196 -279 251 -374 15 -27 29
-48 31 -48 3 0 -1 46 -10 107 -20 133 -77 277 -162 406 -74 115 -233 280 -393
409 -123 99 -136 108 -121 82 6 -11 21 -62 34 -114 14 -52 28 -104 33 -115 4
-11 -8 -2 -27 20 -18 21 -45 50 -59 65 -24 24 -25 30 -26 155 0 72 -3 165 -6
208 -3 42 -3 77 0 77 3 0 21 -17 40 -37z m-108 -480 c82 -76 151 -160 232
-283 69 -106 144 -237 153 -270 4 -14 11 -29 15 -35 9 -11 35 -99 45 -150 12
-58 12 -311 0 -420 -17 -151 -12 -514 9 -635 23 -139 24 -145 53 -265 20 -80
34 -116 51 -132 21 -20 23 -26 16 -95 -3 -40 -8 -75 -9 -78 -2 -3 -7 -48 -12
-100 -14 -169 -8 -615 11 -730 3 -14 7 -54 10 -90 3 -36 10 -99 16 -140 5 -41
12 -91 15 -110 2 -19 7 -60 11 -90 3 -30 8 -63 9 -72 2 -9 6 -44 10 -77 3 -33
7 -68 10 -78 2 -11 6 -53 9 -94 4 -41 9 -87 11 -104 23 -172 23 -702 0 -847
-2 -13 -6 -54 -10 -91 -3 -37 -8 -76 -10 -85 -1 -9 -6 -44 -9 -77 -16 -142
-81 -512 -121 -690 -108 -486 -230 -865 -390 -1215 -66 -144 -163 -329 -220
-420 -12 -19 -42 -66 -66 -105 -55 -88 -172 -252 -263 -370 -83 -108 -179
-228 -186 -235 -3 -3 -98 -117 -210 -255 -112 -137 -238 -291 -280 -341 -41
-50 -93 -113 -115 -140 -103 -126 -366 -441 -400 -478 -11 -12 -51 -58 -90
-101 -79 -90 -332 -345 -415 -420 -49 -45 -112 -97 -220 -184 -37 -29 -269
-191 -274 -191 -2 0 -29 -15 -59 -33 -59 -36 -126 -57 -727 -227 -288 -82
-368 -101 -422 -101 -58 0 -70 -4 -85 -22 -10 -13 -33 -33 -51 -46 -102 -72
-78 -242 40 -279 18 -6 85 -18 148 -27 63 -9 131 -18 150 -21 220 -32 730
-154 1070 -258 242 -73 668 -216 735 -246 11 -5 81 -32 155 -60 286 -108 863
-355 1005 -431 173 -91 289 -227 329 -384 14 -56 15 -158 2 -213 -4 -12 -8
-31 -10 -42 -9 -38 -70 -155 -115 -218 -39 -54 -67 -77 -215 -176 -344 -228
-742 -461 -1083 -634 -170 -86 -262 -127 -558 -247 -291 -118 -286 -116 -397
-171 -99 -48 -205 -82 -438 -138 -148 -36 -397 -90 -460 -100 -19 -3 -102 -17
-185 -30 -82 -14 -175 -28 -205 -31 -30 -3 -68 -8 -85 -10 -208 -25 -614 -25
-775 0 -14 2 -45 6 -70 9 -192 22 -495 105 -710 193 -181 75 -460 226 -565
305 -5 5 -53 40 -105 79 -456 343 -795 820 -979 1378 -17 52 -33 104 -35 115
-3 12 -13 59 -24 106 -11 47 -23 103 -26 125 -4 23 -8 50 -10 60 -26 135 -27
452 -2 565 3 14 9 41 13 60 11 60 54 157 96 215 78 110 216 222 457 373 189
118 200 127 200 162 0 46 -27 65 -87 60 -22 -1 -22 0 -17 102 8 158 8 369 1
410 l-7 38 78 -83 c289 -306 445 -440 632 -540 126 -67 325 -128 500 -152 25
-3 59 -9 75 -12 17 -3 41 -6 55 -8 125 -13 345 -59 457 -96 72 -24 96 -28 112
-20 37 20 38 80 2 108 -15 12 -96 39 -96 32 0 -1 -10 3 -21 9 -23 12 -171 47
-244 57 -25 3 -52 8 -60 10 -8 2 -35 7 -60 10 -55 8 -97 14 -130 20 -14 2 -45
7 -70 10 -146 20 -303 66 -430 127 -101 49 -147 79 -290 193 -14 11 -104 99
-200 195 -233 232 -401 426 -714 824 -32 41 -520 688 -551 730 -11 16 -36 49
-55 74 -35 46 -269 369 -310 427 -11 17 -41 58 -65 92 -125 175 -424 637 -514
795 -10 18 -53 94 -95 168 -89 155 -285 548 -347 695 -165 392 -279 751 -349
1095 -12 58 -23 114 -24 125 -4 29 -20 129 -21 135 -1 3 -5 32 -9 65 -5 33
-10 67 -11 75 -6 34 -15 98 -20 145 -3 28 -7 61 -10 75 -2 14 -7 48 -10 75
-14 119 -51 323 -66 372 -6 17 -12 43 -15 57 -17 95 -112 313 -184 421 -46 70
-107 216 -97 232 3 5 -5 52 -19 104 -32 126 -65 325 -78 479 -13 145 -16 214
-21 410 -10 406 -15 535 -30 700 -4 54 -4 54 21 -30 116 -390 319 -822 515
-1094 112 -154 250 -234 440 -252 146 -14 575 -7 693 11 11 2 58 6 103 10 45
3 90 7 100 9 10 2 54 7 97 11 43 4 86 8 95 10 9 1 43 6 76 9 33 4 74 9 90 12
260 37 405 60 525 84 80 16 156 31 170 34 160 30 513 144 656 211 264 123 482
333 615 592 39 77 114 261 124 305 2 13 14 59 24 102 11 44 22 93 25 110 3 17
8 51 12 76 21 138 8 314 -36 510 -39 170 -18 273 72 356 90 84 201 114 407
111 160 -2 175 -7 258 -74 51 -42 71 -72 78 -115 17 -109 20 -157 14 -188 -13
-60 -3 -125 28 -187 17 -32 40 -105 53 -163 32 -149 120 -451 180 -620 95
-265 106 -281 177 -256 38 13 37 40 -8 154 -45 114 -161 463 -156 468 1 2 27
-38 57 -88 195 -322 380 -512 605 -623 218 -107 359 -129 835 -129 284 0 519
10 675 28 22 3 67 8 100 11 50 5 179 22 295 40 309 47 767 160 958 236 381
152 555 349 621 705 20 112 27 156 36 259 3 33 8 74 10 90 6 46 18 210 29 395
4 58 9 126 11 153 22 218 26 248 41 326 22 105 50 174 94 229 36 47 88 81 121
82 9 0 49 -30 89 -67z m-7687 23 c26 -3 140 -19 289 -40 31 -4 28 -12 -5 -12
-55 -1 -287 -18 -385 -28 l-42 -4 25 30 c16 19 23 37 20 48 -6 19 -7 19 98 6z
m642 -36 c4 -6 -6 -10 -22 -10 -22 0 -25 2 -13 10 19 12 27 12 35 0z m1886
-117 c0 -10 3 -31 5 -48 3 -16 11 -77 19 -135 20 -142 25 -169 36 -197 5 -13
9 -25 9 -26 0 -2 -29 2 -64 7 l-64 10 -16 85 c-15 83 -18 100 -30 186 -3 22
-8 56 -10 76 l-5 36 52 10 c28 6 55 11 60 12 4 0 7 -7 8 -16z m-1744 -19 c-3
-3 -12 -4 -19 -1 -8 3 -5 6 6 6 11 1 17 -2 13 -5z m724 -57 c18 -1 34 -7 36
-14 5 -13 -75 3 -92 19 -6 6 -4 7 7 3 9 -4 31 -7 49 -8z m-911 -62 c0 -7 -30
-13 -34 -7 -3 4 4 9 15 9 10 1 19 0 19 -2z m40 -5 c0 -5 -2 -10 -4 -10 -3 0
-8 5 -11 10 -3 6 -1 10 4 10 6 0 11 -4 11 -10z m-490 -3 c-3 -3 -68 -8 -145
-12 -77 -4 -143 -9 -147 -11 -5 -3 -8 -1 -8 5 0 6 30 11 68 13 167 7 236 9
232 5z m911 -12 c152 -12 379 -103 480 -194 88 -79 138 -190 164 -366 7 -48 8
-340 1 -410 -3 -28 -8 -84 -12 -125 -3 -41 -7 -91 -9 -110 -5 -60 -16 -143
-25 -200 -15 -91 -19 -113 -25 -154 -7 -43 -6 -36 -35 -171 -88 -418 -140
-518 -323 -626 -40 -23 -92 -55 -117 -70 -109 -67 -304 -135 -558 -195 -129
-30 -421 -85 -522 -98 -46 -6 -109 -16 -140 -21 -14 -3 -47 -7 -75 -10 -27 -3
-66 -8 -85 -11 -19 -3 -55 -7 -80 -9 -25 -3 -67 -7 -95 -10 -48 -5 -67 -7
-205 -20 -36 -3 -83 -8 -105 -10 -232 -23 -448 -23 -556 0 -85 18 -105 29 -33
18 87 -14 579 -5 684 11 14 3 63 7 110 11 47 4 92 8 100 10 8 1 47 6 85 9 39
4 77 9 85 11 8 2 40 6 70 10 30 3 66 7 80 9 320 52 353 58 515 91 294 60 447
106 613 185 165 79 308 182 296 214 -11 30 -35 24 -106 -29 -96 -71 -239 -145
-366 -189 -89 -31 -335 -96 -412 -110 -14 -2 -70 -13 -125 -24 -99 -21 -202
-40 -260 -49 -16 -2 -68 -10 -115 -18 -47 -8 -107 -17 -135 -20 -27 -4 -61 -8
-74 -10 -43 -7 -146 -17 -406 -40 -229 -20 -541 -26 -618 -12 -247 46 -366
197 -532 677 -89 257 -184 611 -214 800 -6 36 -13 74 -15 85 -11 54 -19 159
-18 240 2 159 49 299 129 379 26 26 33 40 28 55 -10 32 -39 25 -83 -21 -38
-38 -99 -146 -107 -186 -2 -9 -4 -17 -5 -17 -2 0 -8 -34 -19 -103 -8 -54 -7
-223 3 -277 3 -16 8 -50 11 -75 23 -172 145 -682 184 -775 5 -11 26 -69 46
-130 49 -143 142 -357 193 -443 37 -63 118 -154 173 -195 13 -9 2 -4 -26 12
-209 125 -412 538 -531 1081 -9 41 -17 84 -19 95 -2 11 -13 70 -24 130 -12 61
-24 128 -26 150 -3 22 -7 51 -10 65 -2 14 -7 43 -9 65 -3 22 -10 78 -17 125
-25 192 -19 284 26 375 27 56 90 124 150 164 22 14 42 29 45 33 14 18 188 90
310 128 137 43 363 109 390 115 8 2 77 20 153 39 75 19 199 46 275 60 170 32
190 35 325 51 23 3 58 7 77 10 31 4 124 12 218 19 17 2 32 0 32 -4 0 -4 -37
-11 -82 -15 -46 -5 -85 -9 -88 -10 -3 0 -36 -5 -75 -10 -38 -5 -72 -9 -75 -10
-3 0 -32 -5 -65 -10 -33 -5 -62 -9 -65 -10 -18 -4 -81 -16 -114 -21 -21 -3
-46 -7 -55 -9 -207 -44 -319 -73 -521 -132 -137 -40 -244 -76 -387 -129 -34
-12 -43 -21 -43 -39 0 -13 5 -27 10 -30 6 -4 63 12 128 35 168 60 186 66 297
99 113 34 269 76 365 97 36 8 74 17 85 20 28 6 76 16 100 20 11 1 58 10 105
19 47 9 101 18 120 21 35 4 164 22 210 29 14 2 54 7 90 10 36 3 83 8 105 10
237 24 833 24 990 0 17 -3 46 -7 65 -10 242 -34 394 -95 510 -204 142 -133
192 -294 185 -597 -3 -89 -5 -166 -6 -170 -6 -36 43 -50 56 -16 3 9 9 88 12
174 12 327 -48 516 -210 663 -114 104 -326 187 -532 211 -27 3 -56 7 -64 10
-7 2 -64 7 -125 10 -61 4 -113 9 -116 11 -5 6 305 -3 411 -12z m-3677 -183 c7
-11 -102 -225 -126 -245 -11 -9 -38 -20 -59 -23 -21 -4 -44 -14 -52 -23 -35
-40 -50 -154 -33 -256 7 -41 24 -145 31 -180 2 -11 6 -46 10 -77 11 -85 25
-93 143 -91 57 2 111 -2 131 -10 34 -12 34 -13 57 -127 13 -63 22 -119 20
-125 -1 -5 -6 4 -10 22 -4 17 -14 37 -22 44 -20 17 -62 14 -83 -5 -17 -15 -19
-14 -36 24 -19 43 -47 57 -85 45 -41 -13 -41 -43 1 -247 37 -182 65 -322 76
-378 10 -56 35 -146 49 -172 15 -28 19 -46 8 -35 -4 3 -28 -2 -55 -13 -27 -10
-49 -16 -49 -14 0 3 -17 69 -39 147 -21 78 -92 341 -157 585 l-118 442 -42 0
c-41 0 -42 0 -54 48 -6 26 -14 58 -16 71 -3 13 -6 27 -7 32 -4 15 335 485 377
522 43 38 126 61 140 39z m181 -455 c83 -34 83 -35 -8 -107 l-82 -66 -99 31
-99 30 70 63 c101 89 113 92 218 49z m11560 -14 c49 -14 114 -103 180 -248
l35 -77 -37 30 c-210 165 -497 120 -699 -110 -55 -63 -59 -59 -58 66 2 134 2
136 13 136 4 0 39 21 77 46 185 124 383 188 489 157z m32 -353 c114 -53 201
-171 257 -347 14 -46 28 -93 30 -105 52 -252 65 -321 70 -363 9 -75 17 -137
21 -163 5 -32 19 -251 18 -279 0 -13 -68 -157 -150 -320 -162 -322 -258 -552
-298 -713 -12 -49 -44 -223 -50 -270 -3 -30 -8 -71 -10 -90 -4 -30 -9 -93 -20
-215 -16 -191 -74 -339 -166 -427 -16 -16 -59 -45 -96 -65 -54 -30 -79 -37
-130 -39 -40 -2 -79 2 -101 12 l-37 14 -1 178 c0 164 -10 396 -19 467 -2 17
-7 57 -10 90 -3 33 -8 78 -10 100 -21 160 -25 208 -21 212 2 2 24 7 48 9 79 9
161 25 202 41 96 38 183 120 237 223 45 87 31 144 -35 138 -26 -3 -36 -12 -68
-68 -89 -153 -161 -194 -370 -214 l-37 -4 -6 57 c-4 31 -9 70 -12 86 -13 85
-10 155 13 255 13 58 26 115 29 127 12 50 25 74 37 67 7 -5 42 -27 78 -50 86
-55 169 -96 180 -89 5 3 7 13 5 23 -1 9 -6 82 -9 162 -4 80 -9 170 -11 200 -2
30 -7 93 -11 140 -3 47 -8 101 -9 121 -7 90 -17 168 -26 214 -5 28 -11 61 -14
74 -7 36 -26 91 -31 91 -3 0 -26 -12 -51 -26 -24 -15 -63 -28 -85 -30 -48 -3
-48 -12 1 169 42 154 85 278 123 350 l31 58 41 -6 c98 -14 213 -100 268 -201
33 -61 65 -174 75 -268 11 -94 9 -496 -2 -616 -14 -159 -11 -170 48 -170 36 0
67 32 68 73 2 37 4 71 13 182 8 97 9 409 1 485 -19 184 -45 282 -102 379 -66
112 -187 217 -273 236 -43 9 -45 20 -8 48 126 95 261 115 385 57z m-7239 -11
c-3 -20 -5 -19 -9 9 -3 20 -2 29 4 23 5 -5 7 -19 5 -32z m6572 -210 c0 -12
-43 -114 -53 -124 -7 -7 -8 -7 -4 0 3 6 6 35 8 65 1 30 4 58 6 62 4 8 43 6 43
-3z m-10973 -161 c-3 -7 -5 -2 -5 12 0 14 2 19 5 13 2 -7 2 -19 0 -25z m4270
-10 c-3 -8 -6 -5 -6 6 -1 11 2 17 5 13 3 -3 4 -12 1 -19z m-14 -118 c-9 -52
-19 -99 -23 -103 -4 -4 1 38 11 95 10 57 18 105 19 107 0 2 2 2 4 0 2 -2 -3
-47 -11 -99z m6626 24 c-11 -38 -24 -80 -28 -94 -7 -22 -8 4 -2 131 1 13 40
41 48 34 2 -1 -6 -33 -18 -71z m-11002 44 c-3 -8 -6 -5 -6 6 -1 11 2 17 5 13
3 -3 4 -12 1 -19z m10 -50 c-3 -7 -5 -2 -5 12 0 14 2 19 5 13 2 -7 2 -19 0
-25z m64 -700 l26 -31 -23 -59 c-55 -140 -58 -240 -28 -768 2 -36 5 -208 5
-383 2 -350 1 -347 63 -347 59 0 61 12 60 389 -1 185 -3 353 -7 375 -7 51 5
35 33 -44 20 -59 152 -408 234 -620 121 -312 146 -444 111 -568 -9 -31 -31
-75 -49 -97 -46 -57 -47 -60 -36 -89 27 -72 110 -41 167 62 19 35 32 41 31 15
0 -10 2 -36 5 -58 3 -22 9 -65 13 -95 3 -30 8 -62 9 -71 2 -9 6 -40 10 -70 3
-30 8 -65 10 -79 2 -14 7 -45 10 -70 5 -39 29 -185 40 -245 13 -72 74 -317
110 -440 14 -48 25 -89 25 -91 0 -12 -42 0 -86 26 -87 49 -152 169 -209 386
-51 192 -117 334 -300 649 -29 50 -62 106 -73 125 -108 184 -184 390 -207 555
-12 92 -14 110 -20 183 -10 132 -14 204 -41 727 -3 72 -7 150 -9 175 -2 38
-14 227 -19 295 -1 11 4 34 11 51 14 37 18 106 8 156 -6 32 -3 41 19 62 36 36
74 34 107 -6z"/>
<path d="M6349 15823 c-13 -16 -12 -17 4 -4 16 13 21 21 13 21 -2 0 -10 -8
-17 -17z"/>
<path d="M14517 15974 c-1 -1 -53 -5 -116 -9 -63 -3 -129 -8 -145 -10 -17 -2
-62 -7 -101 -10 -154 -14 -372 -48 -632 -101 -47 -9 -349 -85 -373 -94 -14 -4
-86 -27 -160 -50 -74 -23 -144 -46 -155 -50 -11 -5 -87 -35 -170 -66 -380
-144 -574 -269 -696 -452 -72 -107 -103 -214 -97 -335 3 -61 10 -105 22 -129
19 -39 30 -45 55 -29 12 8 12 16 0 58 -14 49 -18 177 -7 224 33 142 151 293
310 398 68 46 246 134 343 171 33 12 74 28 90 35 133 56 542 188 653 210 9 2
53 12 97 23 74 19 224 51 270 58 11 2 58 10 105 18 95 17 151 25 263 40 17 3
68 8 112 11 44 4 96 8 115 10 81 9 277 18 450 20 102 1 188 3 193 4 12 2 8 39
-5 48 -11 7 -415 13 -421 7z"/>
<path d="M15222 15909 c-17 -6 -22 -15 -20 -31 3 -22 6 -23 123 -23 127 -1
172 -11 237 -51 58 -37 110 -141 123 -249 3 -22 8 -60 11 -85 3 -25 9 -79 14
-120 5 -41 12 -102 15 -135 3 -33 8 -78 10 -100 21 -212 33 -682 21 -815 -12
-121 -19 -162 -42 -249 -55 -212 -166 -372 -329 -477 -127 -81 -294 -141 -605
-219 -32 -8 -316 -67 -340 -70 -30 -4 -95 -15 -123 -21 -23 -4 -151 -22 -212
-29 -38 -5 -102 -14 -135 -20 -8 -2 -49 -6 -90 -10 -41 -4 -81 -12 -88 -18
-20 -16 -11 -52 13 -51 41 1 347 40 465 59 14 2 45 6 70 10 25 3 59 8 75 12
17 3 39 7 50 9 45 5 239 47 374 80 155 38 365 108 465 154 153 71 289 188 364
313 53 88 108 237 127 342 2 17 7 41 10 55 24 119 24 746 0 870 -2 13 -7 61
-11 108 -3 47 -8 95 -10 106 -2 12 -6 45 -9 73 -11 112 -23 203 -41 306 -19
116 -101 219 -203 258 -43 17 -83 22 -171 24 -63 2 -125 -1 -138 -6z"/>
<path d="M13818 15135 c-2 -2 -32 -6 -68 -9 -147 -15 -310 -65 -475 -146 -166
-80 -198 -108 -161 -139 12 -10 25 -6 68 19 194 114 402 184 618 209 81 9 279
7 347 -3 23 -4 55 -8 70 -10 114 -15 347 -79 688 -189 247 -80 296 -95 337
-102 31 -6 37 -4 43 15 4 12 3 26 -2 30 -4 4 -69 26 -143 49 -74 22 -191 59
-260 82 -69 22 -129 42 -135 43 -5 1 -55 17 -110 34 -86 26 -221 63 -290 78
-98 22 -288 42 -396 41 -71 0 -130 -1 -131 -2z"/>
<path d="M13928 14894 c-2 -1 -30 -4 -63 -8 -239 -23 -448 -109 -715 -294
-188 -129 -478 -351 -484 -369 -8 -26 -2 -49 17 -71 24 -26 46 -22 104 21 l50
36 116 -1 c138 -2 167 8 167 57 0 42 -25 63 -78 67 l-42 3 126 89 c69 49 145
102 170 117 l44 29 -1 -88 c0 -48 2 -96 4 -108 25 -105 95 -172 203 -191 91
-17 178 -6 405 49 104 25 136 37 175 67 110 83 133 232 69 438 -8 24 -8 24 67
7 15 -3 31 -6 35 -6 24 -2 177 -59 227 -85 l59 -30 -77 -48 c-75 -47 -96 -68
-96 -99 0 -23 36 -56 61 -56 12 0 68 29 125 65 l103 65 85 -55 c134 -88 260
-126 341 -104 40 11 59 44 49 85 -7 27 -18 30 -111 37 -80 6 -145 37 -291 135
-222 150 -393 215 -627 238 -66 6 -214 12 -217 8z m139 -172 c21 -50 21 -51 2
-68 -10 -9 -19 -25 -19 -35 0 -19 -47 -33 -85 -25 -11 3 -30 5 -43 5 -14 1
-26 10 -31 25 -15 38 -70 49 -101 21 -36 -33 -66 8 -49 69 8 29 14 34 57 42
26 5 92 10 148 12 l101 3 20 -49z m-590 -354 c-3 -8 -6 -5 -6 6 -1 11 2 17 5
13 3 -3 4 -12 1 -19z"/>
<path d="M12039 14670 c-2 -21 -7 -156 -9 -197 0 -7 -7 -10 -15 -7 -8 4 -22 1
-30 -6 -12 -10 -8 -27 24 -118 154 -429 414 -973 508 -1064 39 -37 116 -67
213 -83 25 -4 54 -9 65 -11 11 -2 40 -7 65 -10 25 -3 52 -8 60 -9 9 -2 43 -6
75 -10 33 -4 74 -9 90 -11 106 -13 467 -25 512 -16 24 4 35 24 27 46 -4 11
-40 14 -177 15 -95 1 -188 3 -207 5 -19 3 -73 7 -120 11 -47 3 -96 8 -110 10
-14 2 -45 6 -70 10 -53 7 -194 32 -265 47 -61 13 -103 35 -130 67 -22 27 -76
121 -69 121 2 0 23 -14 46 -30 23 -17 45 -27 49 -23 37 39 34 248 -5 365 -30
90 -80 201 -126 278 -18 30 -41 70 -52 88 -99 176 -296 495 -328 534 l-19 23
-2 -25z"/>
<path d="M14170 13659 c-74 -21 -147 -41 -162 -44 -14 -3 -64 -14 -110 -25
-46 -11 -101 -22 -122 -26 -57 -9 -83 -20 -95 -43 -16 -29 -13 -49 10 -72 22
-22 59 -22 149 1 19 5 78 19 130 31 52 11 126 30 164 41 38 11 78 22 90 24 46
9 132 39 144 50 20 21 15 71 -10 88 -29 21 -31 21 -188 -25z"/>
<path d="M10628 13123 c-20 -5 -35 -43 -43 -103 -3 -25 -8 -56 -10 -70 -2 -14
-6 -41 -9 -60 -13 -92 -19 -123 -43 -230 -69 -313 -155 -510 -304 -690 -183
-223 -227 -297 -255 -432 -21 -101 -17 -236 11 -332 l23 -78 -35 -116 c-19
-65 -36 -124 -38 -132 -2 -8 -8 -27 -14 -42 -20 -53 6 -98 57 -98 37 0 50 21
84 142 18 62 33 115 35 117 1 2 24 -12 50 -31 109 -79 228 -111 408 -112 209
-1 293 14 297 52 0 9 2 24 3 32 1 8 -6 23 -14 33 -14 17 -25 18 -111 11 -216
-17 -342 -5 -439 43 -147 71 -213 193 -207 382 5 160 49 254 207 441 208 246
300 464 388 910 16 84 31 187 38 266 5 67 4 72 -18 88 -24 16 -31 17 -61 9z"/>
<path d="M12399 12386 c-53 -27 -38 -86 39 -162 55 -52 146 -101 289 -155 261
-98 333 -165 339 -314 3 -75 -8 -130 -53 -275 -31 -98 -56 -143 -107 -188 -61
-53 -121 -74 -308 -106 -40 -7 -58 -29 -58 -70 0 -28 33 -56 59 -51 10 2 42 6
72 9 77 8 196 43 252 74 97 52 166 154 216 317 49 158 62 279 41 373 -37 160
-144 250 -413 347 -155 56 -238 106 -279 169 -25 38 -56 49 -89 32z"/>
<path d="M11813 12342 c-19 -12 -31 -55 -22 -79 4 -12 22 -29 39 -38 85 -44
150 -132 174 -235 17 -73 30 -90 66 -90 56 0 72 49 46 145 -28 106 -97 204
-187 264 -59 40 -91 49 -116 33z"/>
<path d="M13371 11754 c-12 -15 -21 -32 -21 -38 0 -36 141 -239 245 -353 60
-67 96 -80 129 -47 32 31 19 65 -55 149 -39 44 -104 130 -144 191 -68 101 -90
123 -127 124 -4 0 -16 -12 -27 -26z"/>
<path d="M12240 11420 c-171 -45 -292 -134 -401 -292 -117 -171 -174 -216
-282 -222 -92 -6 -225 42 -347 124 -226 152 -362 211 -495 216 -87 3 -180 -20
-216 -52 -72 -65 63 -180 211 -177 87 1 251 12 259 17 5 3 14 -1 21 -9 7 -8
16 -15 21 -15 5 0 37 -20 72 -43 98 -69 216 -134 287 -157 86 -29 205 -35 279
-13 106 30 166 79 253 207 34 50 79 110 100 132 l38 41 63 -15 c39 -10 115
-15 207 -16 138 -1 148 0 200 26 117 58 128 190 20 244 -54 27 -197 29 -290 4z"/>
<path d="M15925 10442 c-30 -6 -41 -18 -68 -75 -39 -83 -44 -120 -53 -427 -8
-249 -7 -271 11 -289 38 -39 104 -6 106 52 0 38 7 263 13 432 4 117 11 151 46
205 35 54 2 114 -55 102z"/>
<path d="M11798 9949 c-108 -69 -172 -92 -248 -92 -57 -1 -64 1 -190 28 -149
33 -201 22 -206 -44 -2 -37 15 -53 64 -57 77 -8 113 -14 171 -29 184 -47 303
-23 493 102 37 24 70 53 73 64 11 35 -3 66 -34 77 -27 9 -38 5 -123 -49z"/>
<path d="M16293 9929 c-12 -4 -24 -18 -28 -30 -13 -40 -7 -111 11 -130 22 -24
66 -24 87 -1 17 19 23 85 11 129 -7 26 -51 43 -81 32z"/>
<path d="M16091 9851 c-17 -17 -21 -35 -22 -98 -3 -171 0 -183 52 -183 52 0
67 30 71 144 3 81 1 106 -13 126 -21 33 -62 37 -88 11z"/>
<path d="M13009 9616 c-2 -2 -42 -6 -89 -10 -93 -7 -258 -33 -445 -71 -66 -13
-138 -27 -160 -30 -22 -4 -49 -9 -60 -11 -32 -6 -95 -14 -165 -21 -84 -9 -381
-9 -535 0 -497 31 -719 29 -911 -8 -254 -48 -463 -151 -609 -299 -72 -72 -165
-213 -165 -248 0 -11 -5 -28 -10 -39 -14 -25 -10 -33 129 -231 325 -462 471
-632 652 -763 232 -167 534 -275 869 -310 151 -15 416 -2 522 26 57 15 69 57
29 102 -16 19 -25 19 -156 0 -80 -12 -403 -8 -485 6 -120 20 -294 68 -393 107
-237 93 -402 213 -571 414 -87 102 -202 254 -190 249 5 -2 52 -25 104 -50 82
-40 191 -83 240 -94 8 -2 31 -9 50 -15 47 -15 211 -46 285 -55 32 -4 68 -9 78
-11 131 -25 924 -24 967 1 3 1 31 6 62 9 58 7 261 54 346 81 26 8 130 39 232
70 440 131 771 284 995 457 16 12 27 18 23 13 -3 -6 -18 -37 -34 -70 -83 -175
-190 -322 -348 -480 -121 -121 -214 -196 -337 -274 -75 -46 -89 -72 -60 -111
29 -39 58 -36 141 17 414 263 717 669 830 1111 11 43 31 104 44 134 20 46 24
70 22 130 -3 107 -19 131 -103 157 -59 18 -279 67 -338 76 -11 1 -38 5 -60 9
-116 18 -180 24 -274 25 -58 1 -108 4 -112 6 -3 3 -8 3 -10 1z m271 -140 c14
-3 45 -7 70 -10 38 -5 87 -13 230 -40 147 -28 188 -41 187 -59 -1 -14 -9 -18
-32 -17 -50 3 -55 1 -55 -22 0 -24 -51 -224 -69 -270 -5 -15 -22 -34 -36 -44
-29 -19 -100 -21 -121 -3 -11 9 -18 8 -33 -5 -38 -35 -139 -58 -250 -57 -56 0
-111 3 -121 6 -12 4 -23 -2 -32 -14 -21 -30 -73 -48 -158 -56 -41 -3 -82 -8
-90 -10 -8 -2 -49 -7 -90 -10 -99 -8 -127 -20 -151 -66 -25 -51 -47 -64 -149
-88 -184 -43 -223 -47 -690 -56 -290 -6 -323 -2 -430 52 -52 26 -63 27 -220
30 -91 1 -193 4 -227 6 -45 3 -83 -3 -140 -20 -119 -36 -137 -37 -187 -13 -24
11 -47 27 -50 35 -4 10 -18 12 -58 9 -47 -5 -59 -2 -99 24 -36 23 -50 41 -64
79 -51 139 -61 158 -91 178 l-31 21 36 34 c96 89 217 159 353 206 75 25 255
61 349 69 65 6 406 6 469 0 233 -20 679 -27 819 -12 70 7 167 21 221 32 14 3
39 7 55 10 29 5 51 9 105 20 99 21 182 36 220 41 25 3 47 8 51 9 3 2 39 7 80
11 40 3 76 8 77 9 6 5 324 -3 352 -9z"/>
<path d="M14013 9485 c-29 -20 -30 -58 -3 -113 11 -22 20 -48 20 -57 0 -9 4
-24 9 -33 20 -39 28 -161 16 -275 -6 -57 -4 -71 10 -88 23 -24 67 -25 89 0 28
30 39 186 22 306 -9 64 -64 241 -79 254 -24 19 -62 22 -84 6z"/>
<path d="M9505 9282 c-45 -9 -57 -33 -53 -98 3 -50 12 -75 46 -134 57 -98 74
-160 71 -261 -3 -75 -1 -83 20 -101 34 -27 96 -3 99 40 12 162 -7 250 -80 377
-27 47 -38 77 -35 94 10 51 -24 93 -68 83z"/>
<path d="M12620 7869 c-14 -4 -47 -18 -75 -32 -77 -37 -157 -62 -240 -74 -50
-7 -75 -28 -75 -64 0 -26 35 -73 49 -65 3 2 30 7 60 10 115 14 335 102 353
142 23 51 -19 99 -72 83z"/>
<path d="M12275 6904 c-66 -13 -151 -26 -190 -30 -38 -4 -77 -8 -85 -10 -8 -1
-38 -3 -66 -3 -84 -2 -120 -55 -70 -106 18 -18 32 -22 62 -20 22 2 73 7 114
11 41 3 82 8 90 9 8 1 35 6 60 10 67 10 92 14 120 20 14 2 39 7 55 11 56 11
63 15 74 43 14 32 -1 77 -28 83 -9 3 -70 -6 -136 -18z"/>
<path d="M12725 5493 c-27 -7 -74 -15 -105 -19 -30 -3 -58 -8 -62 -10 -4 -3
-53 -7 -110 -10 -127 -7 -152 -17 -156 -63 -3 -26 3 -40 24 -62 15 -16 38 -29
50 -29 12 0 24 -5 26 -10 5 -17 58 -18 97 -4 20 7 77 25 126 39 234 69 255 79
250 118 -9 68 -34 77 -140 50z"/>
<path d="M11556 5312 c-3 -3 -24 -5 -45 -4 -32 1 -44 -3 -59 -23 -21 -26 -21
-33 -8 -73 5 -15 2 -27 -8 -38 -26 -25 -21 -78 9 -94 53 -28 105 20 84 78 -8
21 0 27 32 24 17 -2 430 -15 462 -15 48 1 67 17 67 59 0 56 -19 61 -245 69
-109 4 -208 9 -220 12 -39 9 -64 11 -69 5z"/>
<path d="M10856 5268 c-39 -55 -8 -88 114 -123 134 -39 134 -38 158 -18 29 24
35 57 14 83 -18 21 -196 80 -244 80 -17 0 -33 -9 -42 -22z"/>
<path d="M7495 14831 c-125 -45 -256 -126 -275 -170 -12 -29 -11 -34 10 -56
31 -32 52 -31 105 5 50 34 159 90 227 115 60 22 78 60 47 100 -24 29 -45 30
-114 6z"/>
<path d="M8808 14385 c-2 -1 -35 -5 -74 -8 -39 -4 -77 -9 -85 -11 -8 -3 -27
-7 -44 -10 -170 -25 -394 -113 -517 -203 -81 -58 -129 -111 -235 -253 -47 -63
-109 -135 -138 -159 -52 -42 -62 -65 -36 -81 18 -10 -37 -37 -111 -55 -58 -13
-189 -13 -241 0 -41 11 -77 -16 -77 -59 0 -43 12 -52 84 -65 181 -33 358 10
520 126 l49 35 77 -21 c95 -26 122 -26 143 -3 34 37 15 85 -40 102 -21 7 -41
16 -46 19 -4 4 32 37 80 73 154 115 232 160 374 211 l65 24 0 -71 c0 -39 3
-82 6 -96 39 -154 90 -192 248 -185 146 6 296 14 395 20 157 10 215 57 221
180 1 35 -2 80 -7 100 -6 20 -9 40 -7 45 2 5 45 -8 95 -27 l93 -35 -20 -28
c-26 -37 -25 -56 4 -85 24 -23 31 -24 74 -8 9 3 24 7 32 9 8 2 24 8 36 15 19
10 29 7 76 -24 142 -95 291 -134 337 -88 11 11 21 31 21 44 0 41 -21 56 -82
61 -69 5 -118 26 -228 98 -103 67 -238 135 -343 173 -53 19 -76 32 -73 41 3 7
-1 20 -8 27 -23 22 -315 135 -396 153 -63 13 -213 26 -222 19z m192 -76 c56
-12 169 -49 227 -75 17 -8 36 -14 41 -14 6 0 13 -4 16 -8 3 -5 -28 -3 -68 3
-113 18 -337 18 -451 1 -324 -50 -550 -156 -840 -396 -44 -36 -98 -79 -120
-95 l-40 -29 41 45 c23 24 73 87 112 140 117 159 192 225 337 297 130 65 359
127 514 139 42 3 77 6 78 7 6 5 103 -5 153 -15z m190 -214 c19 -4 45 -8 56
-11 12 -2 24 -14 27 -26 3 -13 9 -33 12 -45 6 -19 4 -23 -14 -23 -12 0 -40 -9
-61 -20 -34 -18 -40 -18 -40 -5 0 9 -11 27 -24 40 -18 18 -31 22 -55 19 -26
-4 -33 -1 -41 20 -6 17 -22 29 -50 37 -69 21 -46 31 58 25 53 -3 113 -8 132
-11z"/>
<path d="M7143 13852 c-18 -12 -31 -55 -23 -77 17 -45 200 -102 319 -100 62 2
92 26 84 69 -8 38 -27 49 -101 53 -37 3 -108 18 -158 34 -99 32 -103 32 -121
21z"/>
<path d="M8130 13222 c-64 -7 -162 -36 -185 -54 -34 -26 -34 -72 0 -94 23 -15
30 -15 107 6 61 17 107 22 175 21 84 -1 93 1 107 21 43 62 1 102 -108 103 -39
0 -82 -1 -96 -3z"/>
<path d="M13050 21783 c-23 -9 -39 -35 -40 -64 0 -20 14 -38 58 -75 96 -81
259 -243 364 -361 75 -85 106 -113 124 -113 29 0 64 33 64 59 0 52 -381 451
-520 544 -26 18 -27 18 -50 10z"/>
<path d="M16344 20478 c-61 -29 -45 -128 21 -140 19 -3 58 -53 175 -223 25
-36 81 -117 125 -180 44 -63 152 -218 240 -346 88 -127 172 -244 187 -260 32
-34 56 -36 91 -9 33 26 29 46 -20 117 -21 29 -65 93 -98 141 -52 76 -297 427
-465 667 -30 44 -73 107 -94 141 -57 88 -109 118 -162 92z"/>
<path d="M17281 17871 c-17 -17 -19 -31 -15 -93 2 -40 7 -93 10 -118 3 -25 8
-54 9 -66 12 -85 55 -258 92 -364 65 -186 188 -430 231 -458 32 -21 73 -6 87
31 8 24 5 36 -18 75 -26 45 -131 255 -148 297 -69 168 -119 372 -134 540 -11
117 -15 138 -29 154 -21 24 -63 24 -85 2z"/>
<path d="M17536 15678 c-22 -32 -20 -47 15 -98 72 -106 147 -290 178 -436 32
-147 38 -227 31 -413 -2 -43 1 -57 16 -68 45 -33 92 -7 104 58 9 46 5 269 -5
329 -41 240 -110 427 -215 588 -37 56 -45 62 -75 62 -24 0 -39 -7 -49 -22z"/>
<path d="M16690 1826 c-80 -63 -149 -124 -154 -136 -12 -28 7 -68 37 -75 35
-9 61 6 207 123 144 115 162 141 124 183 -34 37 -62 25 -214 -95z"/>
</g>
</svg>
